<?xml version="1.0" standalone="no"?>
<!DOCTYPE svg PUBLIC "-//W3C//DTD SVG 20010904//EN"
 "http://www.w3.org/TR/2001/REC-SVG-20010904/DTD/svg10.dtd">
<svg version="1.0" xmlns="http://www.w3.org/2000/svg"
 width="640.000000pt" height="640.000000pt" viewBox="0 0 640.000000 640.000000"
 preserveAspectRatio="xMidYMid meet">
<metadata>
Created by potrace 1.14, written by Peter Selinger 2001-2017
</metadata>
<g transform="translate(0.000000,640.000000) scale(0.100000,-0.100000)"
fill="#000000" stroke="none">
<path d="M539 5755 c-3 -2 -18 -6 -35 -9 -101 -18 -223 -86 -311 -172 -61 -62
-129 -157 -134 -189 0 -5 -6 -19 -12 -30 -6 -11 -12 -24 -14 -30 -33 -125 -33
-88 -30 -1660 1 -841 6 -1543 11 -1560 4 -16 9 -37 11 -45 2 -8 4 -16 5 -17 2
-2 3 -6 5 -10 1 -5 7 -21 13 -36 7 -16 12 -30 12 -32 0 -3 16 -30 36 -61 35
-55 122 -148 175 -187 51 -39 171 -91 239 -104 59 -11 186 -19 215 -13 6 1 15
2 20 1 30 -5 345 -5 345 0 0 3 23 3 50 -1 28 -4 50 -3 50 0 0 4 19 4 43 0 23
-3 56 -3 74 1 17 3 36 3 43 -1 6 -4 31 -4 55 0 25 4 45 4 45 1 0 -6 144 -6
215 -1 17 1 35 1 40 0 6 -1 71 -1 145 0 74 1 142 2 150 1 52 -2 102 -1 108 3
5 3 14 1 21 -3 7 -5 30 -5 52 -1 22 4 41 4 44 0 2 -4 25 -4 50 0 25 4 45 4 45
1 0 -3 24 -5 52 -4 29 1 62 3 73 3 11 1 58 0 105 0 47 -1 90 -1 95 0 6 1 15 2
20 1 30 -5 345 -5 345 0 0 3 23 3 50 -1 28 -4 50 -3 50 0 0 4 19 4 43 0 23 -3
56 -3 74 1 17 3 36 3 43 -1 6 -4 31 -4 55 0 25 4 45 4 45 1 0 -6 144 -6 215
-1 17 1 35 1 40 0 6 -1 71 -1 145 0 74 1 142 2 150 1 52 -2 102 -1 108 3 5 3
14 1 21 -3 7 -5 30 -5 52 -1 22 4 41 4 44 0 2 -4 25 -4 50 0 25 4 45 4 45 1 0
-3 24 -5 52 -4 29 1 62 3 73 3 11 1 58 0 105 0 47 -1 90 -1 95 0 6 1 15 2 20
1 30 -5 345 -5 345 0 0 3 23 3 50 -1 28 -4 50 -3 50 0 0 4 19 4 43 0 23 -3 56
-3 74 1 17 3 36 3 43 -1 6 -4 31 -4 55 0 25 4 45 4 45 1 0 -6 144 -6 215 -1
17 1 35 1 40 0 19 -3 240 1 288 5 26 3 67 10 90 17 23 6 44 12 47 13 3 0 14 6
25 12 11 6 22 10 25 10 3 -1 31 13 64 31 92 52 197 165 245 264 22 46 43 97
46 115 3 18 10 44 15 58 11 29 9 3096 -2 3130 -52 162 -87 224 -180 316 -56
57 -97 87 -153 115 -43 21 -82 39 -89 41 -6 1 -38 9 -71 18 -53 13 -378 15
-2706 15 -1455 0 -2648 -2 -2650 -5z m291 -635 c14 3 42 3 62 0 20 -4 42 -4
48 0 6 4 28 4 48 0 20 -3 54 -3 75 1 20 3 39 3 42 -1 2 -4 25 -4 50 0 25 4 45
4 45 1 0 -5 40 -5 125 0 11 0 36 0 55 0 19 -1 42 -1 50 0 8 0 40 0 70 0 82 -1
92 -1 130 0 19 0 42 0 50 0 63 -2 123 0 131 5 5 3 9 1 9 -4 0 -4 21 -6 48 -3
26 3 67 4 92 1 25 -3 56 -3 70 1 14 3 34 3 45 -1 11 -4 33 -4 50 0 16 3 41 4
55 0 13 -3 46 -3 72 0 27 4 48 4 48 1 0 -3 23 -6 50 -6 28 0 50 4 50 8 0 5 5
5 10 2 13 -8 226 -9 239 -1 5 4 12 3 15 -2 2 -4 33 -5 68 -2 35 3 88 3 118 0
30 -3 72 -2 93 1 20 4 39 3 41 0 3 -4 33 -4 68 -1 35 3 88 3 118 0 30 -3 72
-2 93 1 20 4 39 3 41 0 3 -4 33 -4 68 -1 35 3 88 3 118 0 30 -3 72 -2 93 1 20
4 39 4 41 0 2 -3 33 -4 68 -1 34 3 111 3 171 0 59 -3 107 -2 107 1 0 3 23 3
50 -1 28 -4 50 -3 50 0 0 4 19 4 43 0 23 -3 56 -3 74 1 17 3 37 3 43 -1 6 -4
29 -4 50 0 22 4 42 5 44 3 7 -7 126 -9 126 -2 0 3 22 3 50 -1 27 -4 50 -3 50
0 0 4 19 4 43 0 23 -3 56 -3 74 1 17 3 37 3 43 -1 6 -4 29 -4 50 0 22 4 42 5
44 3 7 -7 126 -9 126 -2 0 3 23 3 50 -1 28 -4 50 -3 50 0 0 4 19 4 43 0 23 -3
56 -3 74 1 17 3 37 3 43 -1 6 -4 29 -4 50 0 22 4 42 5 44 3 7 -7 126 -9 126
-2 0 3 23 3 50 -1 28 -4 50 -2 50 2 0 5 4 7 9 4 5 -3 38 -6 72 -6 183 -1 170
3 169 -48 -1 -64 -1 -86 -3 -140 -1 -28 0 -52 3 -52 3 0 4 -26 3 -57 -2 -32
-4 -86 -5 -121 -2 -34 0 -62 3 -62 3 0 3 -22 -1 -50 -4 -27 -4 -50 0 -50 4 0
4 -21 0 -48 -3 -26 -3 -59 0 -72 4 -14 3 -39 0 -55 -4 -17 -4 -39 0 -50 4 -11
4 -31 1 -45 -4 -14 -4 -45 -1 -70 3 -25 2 -66 -1 -92 -3 -27 -1 -48 3 -48 5 0
7 -4 4 -9 -5 -8 -7 -70 -5 -131 1 -20 0 -170 -1 -195 0 -11 -2 -44 -3 -73 -1
-28 0 -52 3 -52 3 0 4 -26 3 -57 -2 -32 -4 -86 -5 -121 -2 -34 0 -62 3 -62 3
0 3 -22 -1 -50 -4 -27 -4 -50 0 -50 4 0 4 -21 0 -48 -3 -26 -3 -59 0 -72 4
-14 3 -39 0 -55 -4 -17 -4 -39 0 -50 4 -11 4 -31 1 -45 -4 -14 -4 -45 -1 -70
3 -25 2 -66 -1 -92 -3 -27 -3 -48 1 -48 4 0 4 -21 0 -48 -3 -26 -3 -58 0 -71
3 -13 3 -49 0 -80 -3 -31 -3 -72 0 -91 3 -19 3 -46 0 -60 -3 -13 -3 -46 0 -72
4 -27 4 -48 0 -48 -3 0 -4 -15 -2 -33 4 -33 3 -34 -38 -35 -23 -1 -46 -4 -50
-7 -5 -3 -11 -2 -13 2 -3 5 -34 6 -69 3 -34 -3 -111 -3 -171 0 -59 3 -107 2
-107 -1 0 -3 -22 -3 -50 1 -27 4 -50 3 -50 0 0 -4 -19 -4 -42 0 -24 3 -57 3
-75 -1 -17 -3 -36 -3 -43 1 -6 4 -31 4 -55 0 -25 -4 -45 -4 -45 -1 0 7 -216 5
-236 -3 -7 -3 -16 -1 -19 5 -4 5 -10 7 -15 4 -5 -3 -78 -5 -162 -5 -185 1
-219 0 -228 -5 -3 -2 -12 0 -19 4 -7 5 -30 5 -52 1 -22 -4 -41 -4 -44 0 -2 4
-25 4 -50 0 -25 -4 -45 -4 -45 -1 0 5 -32 5 -125 1 -11 -1 -67 -1 -125 -1 -58
1 -133 0 -168 -1 -34 -2 -62 -1 -62 2 0 4 -27 4 -125 0 -11 -1 -38 -1 -60 -1
-22 0 -47 0 -55 0 -8 0 -73 0 -145 0 -71 1 -158 0 -193 -1 -34 -2 -62 -1 -62
2 0 4 -27 4 -125 0 -11 -1 -38 -1 -60 -1 -22 0 -49 0 -60 0 -76 0 -223 -1
-235 0 -57 2 -102 1 -108 -3 -5 -3 -14 -1 -21 3 -7 5 -30 5 -52 1 -22 -4 -41
-4 -44 0 -2 4 -25 4 -50 0 -25 -4 -45 -4 -45 -1 0 3 -24 5 -52 4 -29 -1 -62
-3 -73 -3 -11 -1 -59 0 -107 0 -48 1 -91 -1 -97 -4 -5 -4 -12 -3 -14 1 -3 5
-34 6 -69 3 -34 -3 -111 -3 -171 0 -59 3 -107 2 -107 -1 0 -3 -22 -3 -50 1
-27 4 -50 3 -50 0 0 -4 -19 -4 -42 0 -24 3 -57 3 -75 -1 -17 -3 -36 -3 -43 1
-6 4 -31 4 -55 0 -25 -4 -45 -4 -45 -1 0 6 -127 6 -210 1 -19 -1 -37 -1 -40 0
-15 4 -130 4 -130 0 0 -9 -80 1 -86 11 -3 5 -5 46 -4 92 1 45 1 89 1 97 -2
150 0 313 4 320 3 5 1 11 -4 14 -4 3 -6 23 -2 43 3 21 4 63 1 93 -3 30 -3 83
0 118 3 35 2 66 -2 68 -5 3 -6 10 -3 15 3 5 6 48 5 96 -1 97 -1 106 0 176 0
27 -2 53 -5 58 -4 5 -2 9 3 9 4 0 6 23 2 50 -4 28 -4 50 -1 50 7 0 5 119 -2
126 -2 2 -1 22 3 44 4 21 4 44 0 50 -4 6 -4 26 -1 43 4 18 4 51 1 75 -4 23 -4
42 0 42 3 0 4 23 0 50 -4 28 -4 50 -1 50 7 0 5 119 -2 126 -2 2 -1 22 3 44 4
21 4 44 -1 51 -4 7 -6 16 -4 19 5 7 6 65 5 258 0 79 2 147 5 152 3 5 1 11 -4
14 -4 3 -6 23 -2 43 3 21 4 63 1 93 -3 30 -3 83 0 118 3 35 2 66 -2 68 -5 3
-6 9 -3 14 3 4 6 27 7 50 1 41 2 42 35 38 18 -2 33 -1 33 2 0 4 21 4 48 0 26
-3 59 -3 72 0z"/>
<path d="M1280 1278 c0 -3 -9 -4 -19 -1 -11 3 -48 -5 -83 -16 -77 -26 -144
-84 -184 -161 -26 -49 -29 -65 -28 -140 1 -67 6 -95 24 -134 30 -62 93 -125
155 -156 l50 -25 1985 -3 c1979 -2 1984 -2 2046 18 74 25 146 90 184 165 21
42 25 64 24 135 -1 101 -23 158 -88 224 -64 64 -125 89 -223 90 -46 1 -83 3
-83 6 0 3 -26 4 -57 2 -32 -1 -76 -2 -98 -1 -22 0 -46 0 -52 0 -25 -2 -44 -2
-98 -1 -30 1 -59 -1 -64 -4 -5 -4 -12 -2 -15 2 -3 5 -26 6 -51 2 -25 -4 -45
-4 -45 -1 0 3 -26 5 -57 3 -32 -1 -76 -2 -98 -1 -22 0 -46 0 -52 0 -25 -2 -44
-2 -98 -1 -30 1 -59 -1 -64 -4 -5 -4 -12 -2 -15 2 -3 5 -26 6 -51 2 -25 -4
-45 -4 -45 -1 0 3 -26 5 -57 3 -32 -1 -76 -2 -98 -1 -22 0 -46 0 -52 0 -25 -2
-44 -2 -98 -1 -30 1 -59 -1 -64 -4 -5 -4 -12 -2 -15 2 -3 5 -26 6 -51 2 -25
-4 -45 -4 -45 -1 0 3 -26 5 -57 3 -32 -1 -76 -2 -98 -1 -22 0 -46 0 -52 0 -25
-2 -44 -2 -98 -1 -30 1 -59 -1 -64 -4 -5 -4 -12 -2 -15 2 -3 5 -26 6 -51 2
-25 -4 -45 -4 -45 -1 0 3 -26 5 -57 3 -32 -1 -76 -2 -98 -1 -22 0 -46 0 -52 0
-25 -2 -44 -2 -98 -1 -30 1 -59 -1 -64 -4 -5 -4 -12 -2 -15 2 -3 5 -26 6 -51
2 -25 -4 -45 -4 -45 -1 0 3 -26 5 -57 3 -32 -1 -76 -2 -98 -1 -22 0 -46 0 -52
0 -25 -2 -44 -2 -98 -1 -30 1 -59 -1 -64 -4 -5 -4 -12 -2 -15 2 -3 5 -26 6
-51 2 -25 -4 -45 -4 -45 -1 0 3 -26 5 -57 3 -32 -1 -76 -2 -98 -1 -22 0 -46 0
-52 0 -25 -2 -44 -2 -98 -1 -30 1 -59 -1 -64 -4 -5 -4 -12 -2 -15 2 -3 5 -26
6 -51 2 -25 -4 -45 -4 -45 -1 0 3 -26 5 -57 3 -32 -1 -76 -2 -98 -1 -22 0 -47
0 -55 0 -23 -1 -79 0 -138 2 -28 1 -52 -1 -52 -5z"/>
</g>
</svg>
